<?xml version="1.0" encoding="iso-8859-1"?>
<!-- Generator: Adobe Illustrator 19.0.0, SVG Export Plug-In . SVG Version: 6.00 Build 0)  -->
<svg version="1.1" id="Layer_1" xmlns="http://www.w3.org/2000/svg" xmlns:xlink="http://www.w3.org/1999/xlink" x="0px" y="0px"
	 viewBox="0 0 512 512" style="enable-background:new 0 0 512 512;" xml:space="preserve">
<path style="fill:#AEB9CC;" d="M433.498,58.388c0,24.577-19.929,44.507-44.507,44.507h-0.517v346.208H5.113V57.437
	c0-14.947,7.534-28.132,18.998-35.969c6.997-4.79,15.453-7.585,24.567-7.585h340.314c12.294,0,23.412,4.983,31.473,13.033
	C428.515,34.966,433.498,46.095,433.498,58.388z"/>
<path style="fill:#C8D0E2;" d="M433.498,58.388c0,24.577-19.929,44.507-44.507,44.507h-0.517v345.307H41.294V56.546
	c0-21.022,14.886-38.562,34.694-42.663h313.002c12.294,0,23.412,4.983,31.473,13.033C428.515,34.966,433.498,46.095,433.498,58.388z
	"/>
<polygon style="fill:#AEB9CC;" points="83.361,84.688 420.105,84.688 407.611,98.818 65.455,98.818 "/>
<rect x="90.583" y="46.379" style="fill:#DDE6F2;" width="341.889" height="27.601"/>
<rect x="90.051" y="45.848" style="fill:#EDF3F9;" width="341.889" height="13.806"/>
<polygon style="fill:#DDE6F2;" points="426.818,30.865 81.628,30.865 81.628,9.065 402.05,9.065 "/>
<rect x="51.293" y="98.214" style="fill:#C8D0E2;" width="333.568" height="402.605"/>
<rect x="51.293" y="98.214" style="fill:#AEB9CC;" width="333.568" height="28.635"/>
<path style="fill:#DDE6F2;" d="M384.859,178.368v322.451H128.261V360.438c0-100.554,81.516-182.07,182.07-182.07L384.859,178.368
	L384.859,178.368z"/>
<polygon style="fill:#FBCB99;" points="244.839,320.99 295.042,373.142 221.477,397.305 "/>
<path style="fill:#694B4B;" d="M490.014,180.515l-7.585,7.494l-22.998,22.724l-20.445,20.202l-118.45,117.034l-25.489,25.175
	l-30.551-29.418l-21.712-20.891l188.233-187.079l7.382-7.331c7.149-7.099,16.496-10.654,25.853-10.654
	c2.076,0,4.162,0.172,6.217,0.527c7.099,1.215,13.924,4.537,19.464,9.964c5.721,5.61,9.205,12.628,10.451,19.949
	C502.338,159.613,498.875,171.755,490.014,180.515z"/>
<path style="fill:#876363;" d="M438.986,230.935L320.535,347.968c-3.119-9.113-1.043-19.605,6.217-26.866l84.334-84.324
	C418.632,229.234,429.649,227.289,438.986,230.935z"/>
<path style="fill:#4F3434;" d="M490.014,180.515l-7.585,7.494l-22.998,22.724l0,0c-17.108-17.108-44.846-17.107-61.954,0.001
	L264.495,343.725l-21.712-20.891l188.233-187.079l7.382-7.331c7.149-7.099,16.496-10.654,25.853-10.654
	c2.076,0,4.162,0.172,6.217,0.527l29.914,29.914C502.338,159.613,498.875,171.755,490.014,180.515z"/>
<path style="fill:#FBCB99;" d="M490.014,180.515l-7.585,7.494l-51.412-52.253l7.382-7.331c7.149-7.099,16.496-10.654,25.853-10.654
	c9.266,0,18.542,3.494,25.681,10.491C504.545,142.601,504.575,166.125,490.014,180.515z"/>
<circle style="fill:#AEB9CC;" cx="47.551" cy="57.152" r="25.957"/>
<g>
	<circle style="fill:#91A0B5;" cx="26.448" cy="57.152" r="14.849"/>
	<path style="fill:#91A0B5;" d="M24.109,21.467v427.636H5.113V57.437C5.113,42.49,12.647,29.305,24.109,21.467z"/>
</g>
<path d="M399.829,55.875c0,1.626-0.374,3.178-1.112,4.612l13.135,6.755c1.797-3.494,2.747-7.425,2.747-11.367
	c0-13.736-11.175-24.911-24.911-24.911h-72.885v14.771h72.885C395.279,45.735,399.829,50.284,399.829,55.875z"/>
<rect x="277.145" y="30.965" width="18.351" height="14.771"/>
<rect x="91.696" y="163.136" width="260.956" height="14.771"/>
<rect x="91.696" y="432.383" width="260.956" height="14.771"/>
<polygon points="418.273,228.326 459.047,187.552 439.419,167.923 428.974,178.367 438.158,187.552 407.829,217.881 "/>
<rect x="391.945" y="229.869" transform="matrix(0.7071 -0.7071 0.7071 0.7071 -50.9284 351.5562)" width="13.914" height="14.77"/>
<path d="M512,153.423c0-10.875-4.235-21.099-11.925-28.789l-5.464-5.464c-15.873-15.874-41.704-15.874-57.578,0l-5.341,5.341
	l-10.445,10.444l-27.072,27.072V105.81c25.554-2.279,45.658-23.797,45.658-49.934c0-27.65-22.496-50.146-50.145-50.146H50.145
	C22.496,5.73,0,28.225,0,55.875V455.13h42.76v51.141h351.416V288.11l90.113-90.113l0,0l7.892-7.893l2.551-2.551l0,0l5.341-5.341
	C507.764,174.521,512,164.298,512,153.423z M283.815,370.476l-49.813,14.767l14.767-49.813L283.815,370.476z M297.812,363.585
	l-42.153-42.153l176.032-176.032l42.153,42.153L297.812,363.585z M425.064,55.875c0,19.506-15.869,35.374-35.374,35.374H85.65
	c9.042-9.075,14.641-21.583,14.641-35.374c0-13.793-5.598-26.3-14.641-35.375h304.038C409.194,20.501,425.064,36.369,425.064,55.875
	z M14.771,440.359V55.875c0-19.506,15.869-35.375,35.374-35.375s35.374,15.869,35.374,35.375S69.65,91.249,50.145,91.249H42.76
	v349.11H14.771z M379.405,491.499H57.53V106.021h321.875v70.776l-32.022,32.021H91.692v14.771h240.922l-30.915,30.915H91.692v14.771
	h195.237l-30.914,30.914H91.692v14.771h149.553l-2.577,2.577l-8.401,28.338H91.692v14.771h134.197l-9.165,30.915H91.692v14.771
	h120.654l-0.24,0.811l2.736-0.811h137.803v-14.771h-87.977l37.042-10.98l19.933-19.933h31.001v-14.771h-16.23l42.992-42.992v188.618
	H379.405z M489.631,171.767l-5.341,5.341l-42.153-42.153l5.341-5.341c10.115-10.115,26.573-10.115,36.689,0l5.464,5.464
	c4.9,4.9,7.599,11.415,7.599,18.344C497.229,160.352,494.53,166.867,489.631,171.767z"/>
<g>
</g>
<g>
</g>
<g>
</g>
<g>
</g>
<g>
</g>
<g>
</g>
<g>
</g>
<g>
</g>
<g>
</g>
<g>
</g>
<g>
</g>
<g>
</g>
<g>
</g>
<g>
</g>
<g>
</g>
</svg>
