<?xml version="1.0" encoding="iso-8859-1"?>
<!-- Generator: Adobe Illustrator 19.0.0, SVG Export Plug-In . SVG Version: 6.00 Build 0)  -->
<svg version="1.1" id="Layer_1" xmlns="http://www.w3.org/2000/svg" xmlns:xlink="http://www.w3.org/1999/xlink" x="0px" y="0px"
	 viewBox="0 0 512 512" style="enable-background:new 0 0 512 512;" xml:space="preserve">
<path style="fill:#66CEDB;" d="M216,282.828v-48c0-26.512-21.488-48-48-48h-56H56c-26.512,0-48,21.488-48,48v112h48v144h56h56v-192
	c0,17.672,14.328,32,32,32h56v-48H216z"/>
<path style="fill:#F6BF58;" d="M456,186.828h-56h-56c-26.512,0-48,21.488-48,48v48h-40v48h56c17.672,0,32-14.328,32-32v192h56h56
	v-144h48v-112C504,208.316,482.512,186.828,456,186.828z"/>
<circle style="fill:#66CEDB;" cx="112" cy="130.828" r="56"/>
<circle style="fill:#F6BF58;" cx="400" cy="130.828" r="56"/>
<g>
	<path style="fill:#010133;" d="M456,178.828h-13.808c13.336-11.736,21.808-28.88,21.808-48c0-35.288-28.712-64-64-64
		s-64,28.712-64,64c0,19.12,8.472,36.264,21.808,48H344c-30.88,0-56,25.128-56,56v40h-32h-32v-40c0-30.872-25.12-56-56-56h-13.808
		c13.336-11.736,21.808-28.88,21.808-48c0-35.288-28.712-64-64-64s-64,28.712-64,64c0,19.12,8.472,36.264,21.808,48H56
		c-30.88,0-56,25.128-56,56v112c0,4.424,3.584,8,8,8h40v136c0,4.424,3.584,8,8,8h56h56c4.416,0,8-3.576,8-8V330.62
		c6.704,5.08,14.96,8.208,24,8.208h56h56c9.04,0,17.296-3.128,24-8.208v160.208c0,4.424,3.584,8,8,8h56h56c4.416,0,8-3.576,8-8v-136
		h40c4.416,0,8-3.576,8-8v-112C512,203.956,486.88,178.828,456,178.828z M352,130.828c0-26.472,21.528-48,48-48s48,21.528,48,48
		s-21.528,48-48,48S352,157.3,352,130.828z M64,130.828c0-26.472,21.528-48,48-48s48,21.528,48,48s-21.528,48-48,48
		S64,157.3,64,130.828z M176,298.828v-24v-40h-16v40v24v184h-40v-144h-16v144H64v-248H48v104H16v-104c0-22.056,17.944-40,40-40h112
		c22.056,0,40,17.944,40,40v48c0,4.424,3.584,8,8,8h32v32h-48C186.768,322.828,176,312.06,176,298.828z M496,338.828h-32v-104h-16
		v248h-40v-144h-16v144h-40v-184v-24v-40h-16v40v24c0,13.232-10.768,24-24,24h-48v-32h32c4.416,0,8-3.576,8-8v-48
		c0-22.056,17.944-40,40-40h112c22.056,0,40,17.944,40,40V338.828z"/>
	<path style="fill:#010133;" d="M341.6,72.484l24.056-24.056c3.128-3.128,3.128-8.184,0-11.312l-23.944-23.944L330.4,24.484
		l10.344,10.344h-60.8c-2.12,0-4.16,0.84-5.656,2.344l-18.344,18.344L237.6,37.172c-1.496-1.504-3.536-2.344-5.656-2.344h-60.8
		l10.344-10.344l-11.312-11.312l-23.944,23.944c-3.128,3.128-3.128,8.184,0,11.312l24.056,24.056L181.6,61.172l-10.344-10.344
		h57.376l16,16l-16,16H192v16h39.944c2.12,0,4.16-0.84,5.656-2.344l18.344-18.344l18.344,18.344
		c1.504,1.504,3.536,2.344,5.656,2.344H320v-16h-36.744l-16-16l16-16h57.376l-10.344,10.344L341.6,72.484z"/>
</g>
<g>
</g>
<g>
</g>
<g>
</g>
<g>
</g>
<g>
</g>
<g>
</g>
<g>
</g>
<g>
</g>
<g>
</g>
<g>
</g>
<g>
</g>
<g>
</g>
<g>
</g>
<g>
</g>
<g>
</g>
</svg>
