<?xml version="1.0" encoding="iso-8859-1"?>
<!-- Generator: Adobe Illustrator 19.0.0, SVG Export Plug-In . SVG Version: 6.00 Build 0)  -->
<svg version="1.1" id="Layer_1" xmlns="http://www.w3.org/2000/svg" xmlns:xlink="http://www.w3.org/1999/xlink" x="0px" y="0px"
	 viewBox="0 0 503.322 503.322" style="enable-background:new 0 0 503.322 503.322;" xml:space="preserve">
<path style="fill:#546080;" d="M295.051,34.712V17.356C295.051,7.81,287.241,0,277.695,0h-52.068
	c-9.546,0-17.356,7.81-17.356,17.356v17.356h-34.712c-5.207,0-8.678,3.471-8.678,8.678v60.746c0,5.207,3.471,8.678,8.678,8.678
	h156.203c5.207,0,8.678-3.471,8.678-8.678V43.39c0-5.207-3.471-8.678-8.678-8.678H295.051z"/>
<path style="fill:#EFEADD;" d="M338.441,60.746v43.39c0,5.207-3.471,8.678-8.678,8.678H173.559c-5.207,0-8.678-4.339-8.678-8.678
	v-43.39h-52.068c-19.092,0-34.712,15.62-34.712,34.712V468.61c0,19.092,15.62,34.712,34.712,34.712h277.695
	c19.092,0,34.712-15.62,34.712-34.712V95.458c0-19.092-15.62-34.712-34.712-34.712H338.441z"/>
<polygon style="fill:#EDDBC6;" points="179.634,334.102 179.634,334.102 162.278,397.451 203.064,357.532 "/>
<path style="fill:#E1705C;" d="M347.119,213.478l-10.414-10.414c-6.942-6.942-17.356-6.942-24.298,0l-31.241,31.241l23.431,23.431
	L347.119,213.478z"/>
<polygon style="fill:#F29C21;" points="303.729,256.868 280.298,233.437 179.634,334.102 203.064,357.532 "/>
<polygon style="fill:#D5C4B1;" points="229.098,383.566 229.098,383.566 203.064,357.532 162.278,397.451 161.41,401.79 "/>
<path style="fill:#A2473F;" d="M329.763,282.902l31.241-31.241c6.942-6.942,6.942-17.356,0-24.298l-13.885-13.885l-43.39,43.39
	L329.763,282.902z"/>
<polygon style="fill:#E18C25;" points="203.064,357.532 229.098,383.566 329.763,282.902 303.729,256.868 "/>
<path style="fill:#5E5E5E;" d="M155.336,416.542c-2.603,0-4.339-0.868-6.075-2.603c-3.471-3.471-3.471-8.678,0-12.149l19.092-19.092
	c3.471-3.471,8.678-3.471,12.149,0c3.471,3.471,3.471,8.678,0,12.149l-19.092,19.092
	C159.675,415.675,157.071,416.542,155.336,416.542"/>
<g>
</g>
<g>
</g>
<g>
</g>
<g>
</g>
<g>
</g>
<g>
</g>
<g>
</g>
<g>
</g>
<g>
</g>
<g>
</g>
<g>
</g>
<g>
</g>
<g>
</g>
<g>
</g>
<g>
</g>
</svg>
