<?xml version="1.0" encoding="iso-8859-1"?>
<!-- Generator: Adobe Illustrator 19.0.0, SVG Export Plug-In . SVG Version: 6.00 Build 0)  -->
<svg version="1.1" id="Capa_1" xmlns="http://www.w3.org/2000/svg" xmlns:xlink="http://www.w3.org/1999/xlink" x="0px" y="0px"
	 viewBox="0 0 512 512" style="enable-background:new 0 0 512 512;" xml:space="preserve">
<path style="fill:#E1E1E4;" d="M420.099,432.199L388.598,337.7c-15-45-51.599-81.2-97.5-93.201
	c-4.797-1.199-9.895-0.298-13.499,3.001L256,265.499L235.001,247.5c-3.604-3.001-8.401-4.2-13.202-3.001
	c-46.498,11.4-83.097,47.601-98.397,93.201l-31.501,94.499C88.598,441.799,95.797,452,106,452h83.101
	c6.299,0,11.997-3.9,14.099-10.201C211,419.9,232.299,362,256,362c23.401,0,45,57.599,52.8,79.799
	C310.902,448.1,316.6,452,322.899,452H406C416.203,452,423.402,441.799,420.099,432.199z"/>
<path style="fill:#D9D8DB;" d="M406,452h-83.101c-6.299,0-11.997-3.9-14.099-10.201C301,419.599,279.401,362,256,362v-96.501
	l21.599-17.999c3.604-3.3,8.701-4.2,13.499-3.001c45.901,12.001,82.5,48.201,97.5,93.201l31.501,94.499
	C423.402,441.799,416.203,452,406,452z"/>
<path style="fill:#E1E1E4;" d="M406,60H106c-10.203,0-17.402,10.199-14.099,19.799l30,90c1.802,6,7.8,10.201,14.099,10.201h240
	c6.299,0,12.297-4.2,14.099-10.201l30-90C423.402,70.199,416.203,60,406,60z"/>
<path style="fill:#D9D8DB;" d="M420.099,79.799l-30,90c-1.802,6-7.8,10.201-14.099,10.201H256V60h150
	C416.203,60,423.402,70.199,420.099,79.799z"/>
<path style="fill:#0D70B2;" d="M406,0H106C81.098,0,61,20.099,61,45c0,24.899,20.098,45,45,45h300c24.902,0,45-20.101,45-45
	C451,20.099,430.902,0,406,0z"/>
<path style="fill:#095C92;" d="M406,90H256V0h150c24.902,0,45,20.099,45,45C451,69.899,430.902,90,406,90z"/>
<path style="fill:#FEA832;" d="M115.302,150c9.899,30,23.401,83.399,87.898,109.499l43.198,36.901c2.703,2.399,6.002,3.6,9.602,3.6
	c3.3,0,6.899-1.201,9.602-3.6l44.7-37.5C373.598,232.2,386.8,180,396.698,150H115.302z"/>
<path style="fill:#FE9923;" d="M265.602,296.4c-2.703,2.399-6.302,3.6-9.602,3.6V150h140.698c-9.899,30-23.101,82.2-86.396,108.9
	L265.602,296.4z"/>
<path style="fill:#FEA832;" d="M336.999,432.199C323.8,393.5,298.297,332,256,332s-67.5,61.199-80.999,100.199
	c-3.303,9.6,3.596,19.801,14.099,19.801h133.799C333.402,452,340.302,441.799,336.999,432.199z"/>
<path style="fill:#FE9923;" d="M336.999,432.199c3.303,9.6-3.596,19.801-14.099,19.801H256V332
	C298.297,332,323.8,393.5,336.999,432.199z"/>
<path style="fill:#0D70B2;" d="M406,422H106c-24.902,0-45,20.099-45,45c0,24.899,20.098,45,45,45h300c24.902,0,45-20.101,45-45
	C451,442.099,430.902,422,406,422z"/>
<path style="fill:#095C92;" d="M451,467c0,24.899-20.098,45-45,45H256v-90h150C430.902,422,451,442.099,451,467z"/>
<g>
</g>
<g>
</g>
<g>
</g>
<g>
</g>
<g>
</g>
<g>
</g>
<g>
</g>
<g>
</g>
<g>
</g>
<g>
</g>
<g>
</g>
<g>
</g>
<g>
</g>
<g>
</g>
<g>
</g>
</svg>
